<svg viewBox="0 0 192 44" xmlns="http://www.w3.org/2000/svg" fill-rule="evenodd" clip-rule="evenodd" stroke-linejoin="round" stroke-miterlimit="1.414"><path fill="none" d="M0 0h191.687v43.87H0z"/><g fill-rule="nonzero"><path d="M26.895 15.994l-12.851 4.503 12.851 4.538v5.577L9.922 23.061v-5.092l16.973-7.551v5.576zM32.23 33.21h-5.473l9.699-27.088h5.473L32.23 33.21zM45.046 5.811c1.178 0 2.05.231 2.615.692.566.462.849 1.178.849 2.148 0 .947-.277 1.651-.831 2.113-.555.462-1.432.693-2.633.693-1.178 0-2.038-.231-2.581-.693-.542-.462-.814-1.166-.814-2.113 0-.97.272-1.686.814-2.148.543-.461 1.403-.692 2.581-.692zm2.979 25.944c0 2.263-.577 3.908-1.732 4.936s-2.817 1.541-4.988 1.541c-1.824 0-3.337-.369-4.538-1.108l.832-3.81c.531.462 1.258.693 2.182.693.762 0 1.345-.214 1.749-.641.404-.428.606-1.138.606-2.131V13.466h5.889v18.289zm18.601-9.872c0 .785-.058 1.432-.173 1.94H54.641c.185 1.085.583 1.882 1.195 2.39.612.508 1.426.762 2.442.762.854 0 1.553-.162 2.096-.485a2.382 2.382 0 0 0 1.091-1.42l4.78 1.524c-.485 1.478-1.426 2.604-2.823 3.377-1.397.774-3.112 1.161-5.144 1.161-3.025 0-5.34-.786-6.945-2.356-1.605-1.57-2.407-3.787-2.407-6.651 0-2.863.785-5.08 2.355-6.65 1.57-1.57 3.799-2.356 6.685-2.356 2.794 0 4.936.768 6.426 2.304 1.489 1.536 2.234 3.689 2.234 6.46zm-8.694-4.642c-1.871 0-2.979 1.132-3.326 3.395h6.512c-.277-2.263-1.339-3.395-3.186-3.395z"/><path d="M84.222 27.425c.439 0 .797-.046 1.074-.138l-.45 3.29c-.67.37-1.455.555-2.356.555-2.494 0-3.983-.89-4.468-2.668-1.039 1.778-3.094 2.668-6.166 2.668-1.732 0-3.059-.37-3.983-1.109-.924-.739-1.386-1.813-1.386-3.221 0-1.478.526-2.673 1.576-3.585 1.051-.913 2.777-1.611 5.179-2.096l3.914-.762v-.624c0-.785-.219-1.408-.658-1.87-.439-.462-1.039-.693-1.801-.693-.878 0-1.594.208-2.148.624-.554.415-.912 1.097-1.074 2.043l-4.78-1.385c.3-1.686 1.132-2.996 2.494-3.932 1.363-.935 3.198-1.403 5.508-1.403 2.702 0 4.757.555 6.165 1.663 1.409 1.109 2.113 2.771 2.113 4.988v6.304c0 .901.416 1.351 1.247 1.351zm-10.218-.104c.808 0 1.536-.225 2.182-.675.647-.45.97-1.045.97-1.784v-1.49l-2.806.659c-.739.184-1.264.409-1.576.675-.311.266-.467.641-.467 1.126 0 .485.15.854.45 1.108.3.254.716.381 1.247.381z"/><path d="M96.554 13.119c1.824 0 3.279.532 4.364 1.594 1.086 1.062 1.628 2.575 1.628 4.537v11.535h-5.888v-9.907c0-1.177-.214-2.014-.641-2.511-.427-.496-1.034-.745-1.819-.745-.923 0-1.674.33-2.251.988-.578.658-.866 1.668-.866 3.031v9.144h-5.889V13.466h5.265l.174 3.325c.554-1.224 1.339-2.142 2.355-2.754 1.016-.612 2.205-.918 3.568-.918zm14.305.347h5.266v4.191h-4.919v13.128h-5.889V17.657h-2.771v-4.191h2.771v-1.594c0-2.078.647-3.637 1.94-4.676 1.293-1.039 2.979-1.559 5.057-1.559 1.802 0 3.129.335 3.984 1.005l-.589 3.672c-.508-.37-1.166-.555-1.975-.555-1.916 0-2.875.832-2.875 2.494v1.213z"/><path d="M132.751 21.883c0 .785-.058 1.432-.173 1.94h-11.812c.185 1.085.583 1.882 1.195 2.39.612.508 1.426.762 2.442.762.855 0 1.553-.162 2.096-.485a2.378 2.378 0 0 0 1.091-1.42l4.78 1.524c-.485 1.478-1.426 2.604-2.823 3.377-1.397.774-3.112 1.161-5.144 1.161-3.025 0-5.34-.786-6.945-2.356-1.605-1.57-2.407-3.787-2.407-6.651 0-2.863.785-5.08 2.355-6.65 1.57-1.57 3.799-2.356 6.685-2.356 2.795 0 4.936.768 6.426 2.304 1.489 1.536 2.234 3.689 2.234 6.46zm-8.694-4.642c-1.871 0-2.979 1.132-3.325 3.395h6.512c-.278-2.263-1.34-3.395-3.187-3.395zm20.263-4.122c.786 0 1.409.127 1.871.381l-.624 4.988c-.231-.138-.542-.259-.935-.363a4.847 4.847 0 0 0-1.247-.156c-1.108 0-2.032.352-2.771 1.056-.739.705-1.108 1.715-1.108 3.031v8.729h-5.889V13.466h5.196l.242 3.741c.416-1.316 1.068-2.327 1.957-3.031.889-.704 1.992-1.057 3.308-1.057z"/><path d="M157.448 13.119c1.825 0 3.28.532 4.365 1.594 1.085 1.062 1.628 2.575 1.628 4.537v11.535h-5.889v-9.907c0-1.177-.213-2.014-.64-2.511-.428-.496-1.034-.745-1.819-.745-.924 0-1.674.33-2.251.988-.578.658-.866 1.668-.866 3.031v9.144h-5.889V13.466h5.265l.173 3.325c.554-1.224 1.34-2.142 2.356-2.754 1.016-.612 2.205-.918 3.567-.918zm24.317 4.85v5.092l-16.973 7.551v-5.577l12.816-4.538-12.816-4.503v-5.576l16.973 7.551z"/></g></svg>