<svg viewBox="0 0 94 94" xmlns="http://www.w3.org/2000/svg" fill-rule="evenodd" clip-rule="evenodd" stroke-linejoin="round" stroke-miterlimit="1.414"><path fill="#fff" d="M0 0h93.303v93.303H0z"/><path d="M22.483 42.663l-11.34 3.973 11.34 4.004v4.921L7.506 48.898v-4.493l14.977-6.663v4.921zm63.314 1.742v4.493l-14.976 6.663V50.64l11.309-4.004-11.309-3.973v-4.921l14.976 6.663zM29.687 61.3h-7.11l12.6-35.192h7.11L29.687 61.3z" fill-rule="nonzero"/><path d="M50.208 41.094V59.41c0 2.94-.75 5.077-2.25 6.412s-3.66 2.003-6.481 2.003c-2.37 0-4.335-.48-5.895-1.44l1.08-4.95c.69.6 1.635.9 2.835.9.99 0 1.748-.278 2.273-.833.525-.555.788-1.477.788-2.767V35.649h11.218v-2.07c0-2.7.84-4.725 2.52-6.076 1.68-1.35 3.87-2.025 6.57-2.025 2.341 0 4.066.435 5.176 1.305l-.765 4.771c-.66-.48-1.515-.72-2.566-.72-2.49 0-3.735 1.08-3.735 3.24v1.575h6.841v5.445h-6.391V58.15h-7.65V41.094h-3.568zm-3.87-15.391c1.53 0 2.662.3 3.397.9.735.6 1.103 1.53 1.103 2.791 0 1.23-.36 2.145-1.08 2.745-.72.6-1.86.9-3.42.9-1.53 0-2.648-.3-3.353-.9-.705-.6-1.058-1.515-1.058-2.745 0-1.261.353-2.191 1.058-2.791.705-.6 1.823-.9 3.353-.9z"/></svg>