<svg xmlns="http://www.w3.org/2000/svg" fill-rule="evenodd" stroke-miterlimit="1.414" viewBox="0 0 100 63" clip-rule="evenodd" stroke-linejoin="round"><path fill="none" d="M0 0h99.584v62.513H0z"/><g fill="#fff"><path fill-rule="nonzero" d="M22.4 26.736L9.55 31.24l12.85 4.537v5.577L5.43 33.802v-5.09l16.97-7.554v5.576zm71.756 1.974v5.092l-16.973 7.552v-5.577L90 31.24l-12.817-4.504V21.16l16.973 7.55zm-63.59 19.147h-8.058l14.28-39.882h8.058l-14.28 39.882z"/><path d="M53.822 24.958v20.757c0 3.332-.85 5.754-2.55 7.267-1.7 1.513-4.148 2.27-7.344 2.27-2.686 0-4.913-.544-6.68-1.632l1.223-5.61c.79.68 1.86 1.02 3.22 1.02 1.12 0 1.98-.315 2.578-.944.596-.63.893-1.674.893-3.136V18.787h12.71V16.44c0-3.06.95-5.354 2.856-6.884C62.63 8.026 65.11 7.26 68.17 7.26c2.65 0 4.607.496 5.865 1.48l-.867 5.408c-.748-.544-1.717-.816-2.907-.816-2.82 0-4.23 1.225-4.23 3.673v1.785h7.75v6.17h-7.24v19.33h-8.67V24.96h-4.04zM49.436 7.516c1.734 0 3.018.34 3.85 1.02.834.68 1.25 1.734 1.25 3.162 0 1.394-.408 2.43-1.224 3.11-.816.68-2.108 1.02-3.876 1.02-1.734 0-3-.34-3.8-1.02-.798-.68-1.198-1.716-1.198-3.11 0-1.428.4-2.482 1.2-3.162.798-.68 2.064-1.02 3.798-1.02z"/></g></svg>