<svg viewBox="0 0 100 63" xmlns="http://www.w3.org/2000/svg" fill-rule="evenodd" clip-rule="evenodd" stroke-linejoin="round" stroke-miterlimit="1.414"><path fill="none" d="M0 0h99.584v62.513H0z"/><path d="M22.401 26.736L9.55 31.239l12.851 4.538v5.577L5.428 33.802v-5.091l16.973-7.552v5.577zm71.755 1.975v5.091l-16.973 7.552v-5.577l12.816-4.538-12.816-4.503v-5.577l16.973 7.552zm-63.59 19.146h-8.058l14.28-39.882h8.058l-14.28 39.882z" fill-rule="nonzero"/><path d="M53.822 24.958v20.757c0 3.332-.85 5.754-2.55 7.267-1.7 1.513-4.148 2.27-7.344 2.27-2.686 0-4.913-.544-6.681-1.632l1.224-5.61c.782.68 1.853 1.02 3.213 1.02 1.122 0 1.981-.315 2.576-.944s.892-1.674.892-3.136V18.787h12.714v-2.346c0-3.06.952-5.355 2.856-6.885 1.904-1.53 4.386-2.295 7.446-2.295 2.652 0 4.607.493 5.865 1.479l-.867 5.406c-.748-.544-1.717-.816-2.907-.816-2.822 0-4.233 1.224-4.233 3.672v1.785h7.752v6.171h-7.242v19.329h-8.67V24.958h-4.044zM49.436 7.516c1.734 0 3.018.34 3.851 1.02.833.68 1.249 1.734 1.249 3.162 0 1.394-.408 2.431-1.224 3.111-.816.68-2.108 1.02-3.876 1.02-1.734 0-3-.34-3.799-1.02-.799-.68-1.199-1.717-1.199-3.111 0-1.428.4-2.482 1.199-3.162.799-.68 2.065-1.02 3.799-1.02z"/></svg>