<?xml version="1.0" encoding="UTF-8" standalone="no"?><!DOCTYPE svg PUBLIC "-//W3C//DTD SVG 1.1//EN" "http://www.w3.org/Graphics/SVG/1.1/DTD/svg11.dtd"><svg width="100%" height="100%" viewBox="0 0 192 44" version="1.1" xmlns="http://www.w3.org/2000/svg" xmlns:xlink="http://www.w3.org/1999/xlink" xml:space="preserve" style="fill-rule:evenodd;clip-rule:evenodd;stroke-linejoin:round;stroke-miterlimit:1.41421;"><rect id="logo.-white" x="0" y="0" width="191.687" height="43.87" style="fill:none;"/><g id="logo"><path d="M26.895,15.994l-12.851,4.503l12.851,4.538l0,5.577l-16.973,-7.551l0,-5.092l16.973,-7.551l0,5.576Z" style="fill:#fff;fill-rule:nonzero;"/><path d="M32.23,33.21l-5.473,0l9.699,-27.088l5.473,0l-9.699,27.088Z" style="fill:#fff;fill-rule:nonzero;"/><path d="M45.046,5.811c1.178,0 2.05,0.231 2.615,0.692c0.566,0.462 0.849,1.178 0.849,2.148c0,0.947 -0.277,1.651 -0.831,2.113c-0.555,0.462 -1.432,0.693 -2.633,0.693c-1.178,0 -2.038,-0.231 -2.581,-0.693c-0.542,-0.462 -0.814,-1.166 -0.814,-2.113c0,-0.97 0.272,-1.686 0.814,-2.148c0.543,-0.461 1.403,-0.692 2.581,-0.692Zm2.979,25.944c0,2.263 -0.577,3.908 -1.732,4.936c-1.155,1.028 -2.817,1.541 -4.988,1.541c-1.824,0 -3.337,-0.369 -4.538,-1.108l0.832,-3.81c0.531,0.462 1.258,0.693 2.182,0.693c0.762,0 1.345,-0.214 1.749,-0.641c0.404,-0.428 0.606,-1.138 0.606,-2.131l0,-17.769l5.889,0l0,18.289Z" style="fill:#fff;fill-rule:nonzero;"/><path d="M66.626,21.883c0,0.785 -0.058,1.432 -0.173,1.94l-11.812,0c0.185,1.085 0.583,1.882 1.195,2.39c0.612,0.508 1.426,0.762 2.442,0.762c0.854,0 1.553,-0.162 2.096,-0.485c0.542,-0.323 0.906,-0.797 1.091,-1.42l4.78,1.524c-0.485,1.478 -1.426,2.604 -2.823,3.377c-1.397,0.774 -3.112,1.161 -5.144,1.161c-3.025,0 -5.34,-0.786 -6.945,-2.356c-1.605,-1.57 -2.407,-3.787 -2.407,-6.651c0,-2.863 0.785,-5.08 2.355,-6.65c1.57,-1.57 3.799,-2.356 6.685,-2.356c2.794,0 4.936,0.768 6.426,2.304c1.489,1.536 2.234,3.689 2.234,6.46Zm-8.694,-4.642c-1.871,0 -2.979,1.132 -3.326,3.395l6.512,0c-0.277,-2.263 -1.339,-3.395 -3.186,-3.395Z" style="fill:#fff;fill-rule:nonzero;"/><path d="M84.222,27.425c0.439,0 0.797,-0.046 1.074,-0.138l-0.45,3.29c-0.67,0.37 -1.455,0.555 -2.356,0.555c-2.494,0 -3.983,-0.89 -4.468,-2.668c-1.039,1.778 -3.094,2.668 -6.166,2.668c-1.732,0 -3.059,-0.37 -3.983,-1.109c-0.924,-0.739 -1.386,-1.813 -1.386,-3.221c0,-1.478 0.526,-2.673 1.576,-3.585c1.051,-0.913 2.777,-1.611 5.179,-2.096l3.914,-0.762l0,-0.624c0,-0.785 -0.219,-1.408 -0.658,-1.87c-0.439,-0.462 -1.039,-0.693 -1.801,-0.693c-0.878,0 -1.594,0.208 -2.148,0.624c-0.554,0.415 -0.912,1.097 -1.074,2.043l-4.78,-1.385c0.3,-1.686 1.132,-2.996 2.494,-3.932c1.363,-0.935 3.198,-1.403 5.508,-1.403c2.702,0 4.757,0.555 6.165,1.663c1.409,1.109 2.113,2.771 2.113,4.988l0,6.304c0,0.901 0.416,1.351 1.247,1.351Zm-10.218,-0.104c0.808,0 1.536,-0.225 2.182,-0.675c0.647,-0.45 0.97,-1.045 0.97,-1.784l0,-1.49l-2.806,0.659c-0.739,0.184 -1.264,0.409 -1.576,0.675c-0.311,0.266 -0.467,0.641 -0.467,1.126c0,0.485 0.15,0.854 0.45,1.108c0.3,0.254 0.716,0.381 1.247,0.381Z" style="fill:#fff;fill-rule:nonzero;"/><path d="M96.554,13.119c1.824,0 3.279,0.532 4.364,1.594c1.086,1.062 1.628,2.575 1.628,4.537l0,11.535l-5.888,0l0,-9.907c0,-1.177 -0.214,-2.014 -0.641,-2.511c-0.427,-0.496 -1.034,-0.745 -1.819,-0.745c-0.923,0 -1.674,0.33 -2.251,0.988c-0.578,0.658 -0.866,1.668 -0.866,3.031l0,9.144l-5.889,0l0,-17.319l5.265,0l0.174,3.325c0.554,-1.224 1.339,-2.142 2.355,-2.754c1.016,-0.612 2.205,-0.918 3.568,-0.918Z" style="fill:#fff;fill-rule:nonzero;"/><path d="M110.859,13.466l5.266,0l0,4.191l-4.919,0l0,13.128l-5.889,0l0,-13.128l-2.771,0l0,-4.191l2.771,0l0,-1.594c0,-2.078 0.647,-3.637 1.94,-4.676c1.293,-1.039 2.979,-1.559 5.057,-1.559c1.802,0 3.129,0.335 3.984,1.005l-0.589,3.672c-0.508,-0.37 -1.166,-0.555 -1.975,-0.555c-1.916,0 -2.875,0.832 -2.875,2.494l0,1.213Z" style="fill:#fff;fill-rule:nonzero;"/><path d="M132.751,21.883c0,0.785 -0.058,1.432 -0.173,1.94l-11.812,0c0.185,1.085 0.583,1.882 1.195,2.39c0.612,0.508 1.426,0.762 2.442,0.762c0.855,0 1.553,-0.162 2.096,-0.485c0.543,-0.323 0.906,-0.797 1.091,-1.42l4.78,1.524c-0.485,1.478 -1.426,2.604 -2.823,3.377c-1.397,0.774 -3.112,1.161 -5.144,1.161c-3.025,0 -5.34,-0.786 -6.945,-2.356c-1.605,-1.57 -2.407,-3.787 -2.407,-6.651c0,-2.863 0.785,-5.08 2.355,-6.65c1.57,-1.57 3.799,-2.356 6.685,-2.356c2.795,0 4.936,0.768 6.426,2.304c1.489,1.536 2.234,3.689 2.234,6.46Zm-8.694,-4.642c-1.871,0 -2.979,1.132 -3.325,3.395l6.512,0c-0.278,-2.263 -1.34,-3.395 -3.187,-3.395Z" style="fill:#fff;fill-rule:nonzero;"/><path d="M144.32,13.119c0.786,0 1.409,0.127 1.871,0.381l-0.624,4.988c-0.231,-0.138 -0.542,-0.259 -0.935,-0.363c-0.392,-0.104 -0.808,-0.156 -1.247,-0.156c-1.108,0 -2.032,0.352 -2.771,1.056c-0.739,0.705 -1.108,1.715 -1.108,3.031l0,8.729l-5.889,0l0,-17.319l5.196,0l0.242,3.741c0.416,-1.316 1.068,-2.327 1.957,-3.031c0.889,-0.704 1.992,-1.057 3.308,-1.057Z" style="fill:#fff;fill-rule:nonzero;"/><path d="M157.448,13.119c1.825,0 3.28,0.532 4.365,1.594c1.085,1.062 1.628,2.575 1.628,4.537l0,11.535l-5.889,0l0,-9.907c0,-1.177 -0.213,-2.014 -0.64,-2.511c-0.428,-0.496 -1.034,-0.745 -1.819,-0.745c-0.924,0 -1.674,0.33 -2.251,0.988c-0.578,0.658 -0.866,1.668 -0.866,3.031l0,9.144l-5.889,0l0,-17.319l5.265,0l0.173,3.325c0.554,-1.224 1.34,-2.142 2.356,-2.754c1.016,-0.612 2.205,-0.918 3.567,-0.918Z" style="fill:#fff;fill-rule:nonzero;"/><path d="M181.765,17.969l0,5.092l-16.973,7.551l0,-5.577l12.816,-4.538l-12.816,-4.503l0,-5.576l16.973,7.551Z" style="fill:#fff;fill-rule:nonzero;"/></g></svg>